<?xml version="1.0" standalone="no"?>
<!DOCTYPE svg PUBLIC "-//W3C//DTD SVG 20010904//EN"
 "http://www.w3.org/TR/2001/REC-SVG-20010904/DTD/svg10.dtd">
<svg version="1.0" xmlns="http://www.w3.org/2000/svg"
 width="512.000000pt" height="512.000000pt" viewBox="0 0 512.000000 512.000000"
 preserveAspectRatio="xMidYMid meet">
<metadata>
Created by potrace 1.14, written by Peter Selinger 2001-2017
</metadata>
<g transform="translate(0.000000,512.000000) scale(0.100000,-0.100000)"
fill="#000000" stroke="none">
<path d="M314 4221 c-22 -17 -53 -53 -68 -80 -25 -48 -68 -211 -80 -311 -27
-217 -28 -573 -2 -730 3 -14 10 -59 16 -100 6 -41 24 -131 41 -200 33 -136 53
-170 101 -170 15 0 28 -5 28 -10 0 -6 15 -48 33 -94 l33 -83 -85 -54 c-47 -29
-124 -73 -170 -97 -109 -56 -115 -60 -141 -105 -17 -29 -21 -47 -17 -82 11
-84 44 -117 162 -156 164 -55 318 -62 429 -20 16 7 29 10 30 9 2 -3 82 -100
121 -147 11 -13 43 -46 72 -75 47 -47 53 -57 62 -116 29 -180 125 -373 297
-600 78 -102 113 -130 166 -130 39 0 92 30 109 62 7 13 16 66 20 118 6 77 27
159 44 178 2 2 45 -12 97 -31 103 -39 273 -83 358 -93 30 -3 58 -8 61 -10 13
-7 205 -18 334 -18 126 0 292 9 356 19 13 2 47 6 74 10 95 12 120 16 135 20 8
3 32 7 53 11 155 24 464 117 639 192 l47 21 48 -46 c64 -60 163 -139 245 -195
138 -94 370 -196 484 -213 21 -4 53 -10 69 -14 48 -13 222 -11 305 3 98 17
236 64 269 92 40 33 39 77 -1 118 -116 116 -289 217 -406 235 -5 0 -16 18 -26
39 -57 120 -187 239 -308 281 -28 10 -28 11 -10 29 80 80 133 209 127 307 -2
43 0 47 65 114 116 120 175 227 186 335 11 110 -29 141 -141 106 -71 -21 -78
-24 -150 -55 -169 -74 -379 -201 -489 -297 -134 -117 -266 -270 -333 -387 -15
-25 -28 -48 -29 -49 -1 -2 -29 1 -61 8 -112 22 -133 30 -133 48 0 37 -30 61
-103 82 -121 35 -331 102 -342 110 -5 3 -32 15 -60 25 -205 75 -484 243 -608
369 -49 50 -117 130 -117 138 0 15 135 7 190 -11 47 -16 59 -17 81 -5 29 14
39 33 39 69 0 65 -106 107 -254 100 -50 -2 -104 -5 -119 -7 -27 -3 -32 3 -85
107 -32 61 -75 148 -96 195 -186 402 -300 604 -435 767 -211 256 -484 393
-807 406 -62 2 -75 6 -111 35 -89 70 -172 82 -239 33z"/>
</g>
</svg>
